<?xml version="1.0" encoding="UTF-8" standalone="no"?>
<!DOCTYPE svg PUBLIC "-//W3C//DTD SVG 1.1//EN"
 "http://www.w3.org/Graphics/SVG/1.1/DTD/svg11.dtd">
<!-- Generated by graphviz version 2.40.1 (20161225.0304)
 -->
<!-- Title: dependencies Pages: 1 -->
<svg width="6044pt" height="366pt"
 viewBox="0.00 0.00 6044.00 366.00" xmlns="http://www.w3.org/2000/svg" xmlns:xlink="http://www.w3.org/1999/xlink">
<g id="graph0" class="graph" transform="scale(1 1) rotate(0) translate(4 362)">
<title>dependencies</title>
<polygon fill="#ffffff" stroke="transparent" points="-4,4 -4,-362 6040,-362 6040,4 -4,4"/>
<text text-anchor="start" x="2997.0091" y="-42.4" font-family="sans-serif" font-weight="bold" font-size="14.00" fill="#000000">Legend</text>
<polygon fill="#ffffb3" stroke="transparent" points="2784,-10 2784,-30 2804,-30 2804,-10 2784,-10"/>
<text text-anchor="start" x="2807.629" y="-15.4" font-family="sans-serif" font-size="14.00" fill="#000000"> &#160;Declarations</text>
<polygon fill="#8dd3c7" stroke="transparent" points="2897,-10 2897,-30 2917,-30 2917,-10 2897,-10"/>
<text text-anchor="start" x="2920.7251" y="-15.4" font-family="sans-serif" font-size="14.00" fill="#000000"> &#160;Module</text>
<polygon fill="#80b1d3" stroke="transparent" points="2983,-10 2983,-30 3003,-30 3003,-10 2983,-10"/>
<text text-anchor="start" x="3006.7812" y="-15.4" font-family="sans-serif" font-size="14.00" fill="#000000"> &#160;Bootstrap</text>
<polygon fill="#fdb462" stroke="transparent" points="3080,-10 3080,-30 3100,-30 3100,-10 3080,-10"/>
<text text-anchor="start" x="3103.6732" y="-15.4" font-family="sans-serif" font-size="14.00" fill="#000000"> &#160;Providers</text>
<polygon fill="#fb8072" stroke="transparent" points="3176,-10 3176,-30 3196,-30 3196,-10 3176,-10"/>
<text text-anchor="start" x="3199.7258" y="-15.4" font-family="sans-serif" font-size="14.00" fill="#000000"> &#160;Exports</text>
<g id="clust1" class="cluster">
<title>cluster_NguiMapModule</title>
<polygon fill="none" stroke="#000000" stroke-dasharray="1,5" points="8,-70 8,-282 1608,-282 1608,-70 8,-70"/>
</g>
<g id="clust2" class="cluster">
<title>cluster_NguiMapModule_declarations</title>
<polygon fill="none" stroke="#000000" points="1248,-78 1248,-130 1464,-130 1464,-78 1248,-78"/>
</g>
<g id="clust4" class="cluster">
<title>cluster_NguiMapModule_imports</title>
<polygon fill="none" stroke="#000000" points="1472,-78 1472,-130 1600,-130 1600,-78 1472,-78"/>
</g>
<g id="clust5" class="cluster">
<title>cluster_NguiMapModule_exports</title>
<polygon fill="none" stroke="#000000" points="905,-222 905,-274 1125,-274 1125,-222 905,-222"/>
</g>
<g id="clust7" class="cluster">
<title>cluster_NguiMapModule_providers</title>
<polygon fill="none" stroke="#000000" points="16,-78 16,-130 1240,-130 1240,-78 16,-78"/>
</g>
<g id="clust8" class="cluster">
<title>cluster_AppModule</title>
<polygon fill="none" stroke="#000000" stroke-dasharray="1,5" points="3459,-146 3459,-350 6028,-350 6028,-146 3459,-146"/>
</g>
<g id="clust9" class="cluster">
<title>cluster_AppModule_declarations</title>
<polygon fill="none" stroke="#000000" points="4865,-154 4865,-206 6020,-206 6020,-154 4865,-154"/>
</g>
<g id="clust18" class="cluster">
<title>cluster_AppModule_imports</title>
<polygon fill="none" stroke="#000000" points="3637,-154 3637,-206 4857,-206 4857,-154 3637,-154"/>
</g>
<g id="clust19" class="cluster">
<title>cluster_AppModule_exports</title>
<polygon fill="none" stroke="#000000" points="4581,-290 4581,-342 4773,-342 4773,-290 4581,-290"/>
</g>
<g id="clust20" class="cluster">
<title>cluster_AppModule_bootstrap</title>
<polygon fill="none" stroke="#000000" points="4781,-290 4781,-342 4905,-342 4905,-290 4781,-290"/>
</g>
<g id="clust21" class="cluster">
<title>cluster_AppModule_providers</title>
<polygon fill="none" stroke="#000000" points="3467,-154 3467,-206 3629,-206 3629,-154 3467,-154"/>
</g>
<g id="clust22" class="cluster">
<title>cluster_FixedPluginModule</title>
<polygon fill="none" stroke="#000000" stroke-dasharray="1,5" points="4033,-70 4033,-138 4515,-138 4515,-70 4033,-70"/>
</g>
<g id="clust23" class="cluster">
<title>cluster_FixedPluginModule_declarations</title>
<polygon fill="none" stroke="#000000" points="4163,-78 4163,-130 4329,-130 4329,-78 4163,-78"/>
</g>
<g id="clust25" class="cluster">
<title>cluster_FixedPluginModule_imports</title>
<polygon fill="none" stroke="#000000" points="4041,-78 4041,-130 4155,-130 4155,-78 4041,-78"/>
</g>
<g id="clust26" class="cluster">
<title>cluster_FixedPluginModule_exports</title>
<polygon fill="none" stroke="#000000" points="4337,-78 4337,-130 4507,-130 4507,-78 4337,-78"/>
</g>
<g id="clust29" class="cluster">
<title>cluster_FooterModule</title>
<polygon fill="none" stroke="#000000" stroke-dasharray="1,5" points="3155,-214 3155,-282 3451,-282 3451,-214 3155,-214"/>
</g>
<g id="clust30" class="cluster">
<title>cluster_FooterModule_declarations</title>
<polygon fill="none" stroke="#000000" points="3309,-222 3309,-274 3443,-274 3443,-222 3309,-222"/>
</g>
<g id="clust33" class="cluster">
<title>cluster_FooterModule_exports</title>
<polygon fill="none" stroke="#000000" points="3163,-222 3163,-274 3301,-274 3301,-222 3163,-222"/>
</g>
<g id="clust36" class="cluster">
<title>cluster_NavbarModule</title>
<polygon fill="none" stroke="#000000" stroke-dasharray="1,5" points="2843,-214 2843,-282 3147,-282 3147,-214 2843,-214"/>
</g>
<g id="clust37" class="cluster">
<title>cluster_NavbarModule_declarations</title>
<polygon fill="none" stroke="#000000" points="3001,-222 3001,-274 3139,-274 3139,-222 3001,-222"/>
</g>
<g id="clust40" class="cluster">
<title>cluster_NavbarModule_exports</title>
<polygon fill="none" stroke="#000000" points="2851,-222 2851,-274 2993,-274 2993,-222 2851,-222"/>
</g>
<g id="clust43" class="cluster">
<title>cluster_SidebarModule</title>
<polygon fill="none" stroke="#000000" stroke-dasharray="1,5" points="2527,-214 2527,-282 2835,-282 2835,-214 2527,-214"/>
</g>
<g id="clust44" class="cluster">
<title>cluster_SidebarModule_declarations</title>
<polygon fill="none" stroke="#000000" points="2687,-222 2687,-274 2827,-274 2827,-222 2687,-222"/>
</g>
<g id="clust47" class="cluster">
<title>cluster_SidebarModule_exports</title>
<polygon fill="none" stroke="#000000" points="2535,-222 2535,-274 2679,-274 2679,-222 2535,-222"/>
</g>
<g id="clust50" class="cluster">
<title>cluster_TableModule</title>
<polygon fill="none" stroke="#000000" stroke-dasharray="1,5" points="1616,-146 1616,-350 2519,-350 2519,-146 1616,-146"/>
</g>
<g id="clust51" class="cluster">
<title>cluster_TableModule_declarations</title>
<polygon fill="none" stroke="#000000" points="2243,-154 2243,-206 2511,-206 2511,-154 2243,-154"/>
</g>
<g id="clust54" class="cluster">
<title>cluster_TableModule_imports</title>
<polygon fill="none" stroke="#000000" points="1624,-154 1624,-206 2235,-206 2235,-154 1624,-154"/>
</g>
<g id="clust55" class="cluster">
<title>cluster_TableModule_exports</title>
<polygon fill="none" stroke="#000000" points="1923,-290 1923,-342 2198,-342 2198,-290 1923,-290"/>
</g>
<!-- COMPONENTS_DIRECTIVES -->
<g id="node1" class="node">
<title>COMPONENTS_DIRECTIVES</title>
<polygon fill="#ffffb3" stroke="#000000" points="1455.5266,-122 1256.4734,-122 1256.4734,-86 1455.5266,-86 1455.5266,-122"/>
<text text-anchor="middle" x="1356" y="-99.8" font-family="Times,serif" font-size="14.00" fill="#000000">COMPONENTS_DIRECTIVES</text>
</g>
<!-- NguiMapModule -->
<g id="node2" class="node">
<title>NguiMapModule</title>
<polygon fill="#8dd3c7" stroke="#000000" points="1071.7064,-198 1068.7064,-202 1047.7064,-202 1044.7064,-198 958.2936,-198 958.2936,-162 1071.7064,-162 1071.7064,-198"/>
<text text-anchor="middle" x="1015" y="-175.8" font-family="Times,serif" font-size="14.00" fill="#000000">NguiMapModule</text>
</g>
<!-- COMPONENTS_DIRECTIVES&#45;&gt;NguiMapModule -->
<g id="edge1" class="edge">
<title>COMPONENTS_DIRECTIVES&#45;&gt;NguiMapModule</title>
<path fill="none" stroke="#000000" d="M1356,-122.0109C1356,-144.4852 1356,-180 1356,-180 1356,-180 1081.692,-180 1081.692,-180"/>
<polygon fill="#000000" stroke="#000000" points="1081.692,-176.5001 1071.692,-180 1081.692,-183.5001 1081.692,-176.5001"/>
</g>
<!-- COMPONENTS_DIRECTIVES  -->
<g id="node4" class="node">
<title>COMPONENTS_DIRECTIVES </title>
<polygon fill="#fb8072" stroke="#000000" points="1116.526,-266 913.474,-266 913.474,-230 1116.526,-230 1116.526,-266"/>
<text text-anchor="middle" x="1015" y="-243.8" font-family="Times,serif" font-size="14.00" fill="#000000">COMPONENTS_DIRECTIVES </text>
</g>
<!-- NguiMapModule&#45;&gt;COMPONENTS_DIRECTIVES  -->
<g id="edge3" class="edge">
<title>NguiMapModule&#45;&gt;COMPONENTS_DIRECTIVES </title>
<path fill="none" stroke="#000000" stroke-dasharray="5,2" d="M1015,-198.2228C1015,-198.2228 1015,-219.7269 1015,-219.7269"/>
<polygon fill="#000000" stroke="#000000" points="1011.5001,-219.7269 1015,-229.7269 1018.5001,-219.727 1011.5001,-219.7269"/>
</g>
<!-- CommonModule -->
<g id="node3" class="node">
<title>CommonModule</title>
<polygon fill="#8dd3c7" stroke="#000000" points="1591.6681,-122 1588.6681,-126 1567.6681,-126 1564.6681,-122 1480.3319,-122 1480.3319,-86 1591.6681,-86 1591.6681,-122"/>
<text text-anchor="middle" x="1536" y="-99.8" font-family="Times,serif" font-size="14.00" fill="#000000">CommonModule</text>
</g>
<!-- CommonModule&#45;&gt;NguiMapModule -->
<g id="edge2" class="edge">
<title>CommonModule&#45;&gt;NguiMapModule</title>
<path fill="none" stroke="#000000" d="M1554.6113,-122.0263C1554.6113,-146.9773 1554.6113,-189 1554.6113,-189 1554.6113,-189 1081.728,-189 1081.728,-189"/>
<polygon fill="#000000" stroke="#000000" points="1081.728,-185.5001 1071.728,-189 1081.7279,-192.5001 1081.728,-185.5001"/>
</g>
<!-- SidebarModule -->
<g id="node21" class="node">
<title>SidebarModule</title>
<polygon fill="#8dd3c7" stroke="#000000" points="3747.3133,-198 3744.3133,-202 3723.3133,-202 3720.3133,-198 3644.6867,-198 3644.6867,-162 3747.3133,-162 3747.3133,-198"/>
<text text-anchor="middle" x="3696" y="-175.8" font-family="Times,serif" font-size="14.00" fill="#000000">SidebarModule</text>
</g>
<!-- CommonModule&#45;&gt;SidebarModule -->
<g id="edge42" class="edge">
<title>CommonModule&#45;&gt;SidebarModule</title>
<path fill="none" stroke="#000000" d="M1591.6701,-100C1928.4381,-100 3678.9479,-100 3678.9479,-100 3678.9479,-100 3678.9479,-151.8468 3678.9479,-151.8468"/>
<polygon fill="#000000" stroke="#000000" points="3675.448,-151.8467 3678.9479,-161.8468 3682.448,-151.8468 3675.448,-151.8467"/>
</g>
<!-- NavbarModule -->
<g id="node22" class="node">
<title>NavbarModule</title>
<polygon fill="#8dd3c7" stroke="#000000" points="3866.2465,-198 3863.2465,-202 3842.2465,-202 3839.2465,-198 3765.7535,-198 3765.7535,-162 3866.2465,-162 3866.2465,-198"/>
<text text-anchor="middle" x="3816" y="-175.8" font-family="Times,serif" font-size="14.00" fill="#000000">NavbarModule</text>
</g>
<!-- CommonModule&#45;&gt;NavbarModule -->
<g id="edge38" class="edge">
<title>CommonModule&#45;&gt;NavbarModule</title>
<path fill="none" stroke="#000000" d="M1591.9448,-95C1940.4602,-95 3799.209,-95 3799.209,-95 3799.209,-95 3799.209,-151.9737 3799.209,-151.9737"/>
<polygon fill="#000000" stroke="#000000" points="3795.7091,-151.9737 3799.209,-161.9737 3802.7091,-151.9737 3795.7091,-151.9737"/>
</g>
<!-- FooterModule -->
<g id="node23" class="node">
<title>FooterModule</title>
<polygon fill="#8dd3c7" stroke="#000000" points="3980.0983,-198 3977.0983,-202 3956.0983,-202 3953.0983,-198 3883.9017,-198 3883.9017,-162 3980.0983,-162 3980.0983,-198"/>
<text text-anchor="middle" x="3932" y="-175.8" font-family="Times,serif" font-size="14.00" fill="#000000">FooterModule</text>
</g>
<!-- CommonModule&#45;&gt;FooterModule -->
<g id="edge34" class="edge">
<title>CommonModule&#45;&gt;FooterModule</title>
<path fill="none" stroke="#000000" d="M1591.904,-91C1950.7834,-91 3915.9836,-91 3915.9836,-91 3915.9836,-91 3915.9836,-151.9895 3915.9836,-151.9895"/>
<polygon fill="#000000" stroke="#000000" points="3912.4837,-151.9895 3915.9836,-161.9895 3919.4837,-151.9896 3912.4837,-151.9895"/>
</g>
<!-- FixedPluginModule -->
<g id="node24" class="node">
<title>FixedPluginModule</title>
<polygon fill="#8dd3c7" stroke="#000000" points="4653.0014,-198 4650.0014,-202 4629.0014,-202 4626.0014,-198 4524.9986,-198 4524.9986,-162 4653.0014,-162 4653.0014,-198"/>
<text text-anchor="middle" x="4589" y="-175.8" font-family="Times,serif" font-size="14.00" fill="#000000">FixedPluginModule</text>
</g>
<!-- CommonModule&#45;&gt;FixedPluginModule -->
<g id="edge30" class="edge">
<title>CommonModule&#45;&gt;FixedPluginModule</title>
<path fill="none" stroke="#000000" d="M1517.3887,-122.1467C1517.3887,-135.7395 1517.3887,-152 1517.3887,-152 1517.3887,-152 4550.5996,-152 4550.5996,-152 4550.5996,-152 4550.5996,-152.9793 4550.5996,-152.9793"/>
<polygon fill="#000000" stroke="#000000" points="4547.0997,-151.793 4550.5996,-161.793 4554.0997,-151.7931 4547.0997,-151.793"/>
</g>
<!-- TableModule -->
<g id="node41" class="node">
<title>TableModule</title>
<polygon fill="#8dd3c7" stroke="#000000" points="2107.9232,-266 2104.9232,-270 2083.9232,-270 2080.9232,-266 2016.0768,-266 2016.0768,-230 2107.9232,-230 2107.9232,-266"/>
<text text-anchor="middle" x="2062" y="-243.8" font-family="Times,serif" font-size="14.00" fill="#000000">TableModule</text>
</g>
<!-- CommonModule&#45;&gt;TableModule -->
<g id="edge46" class="edge">
<title>CommonModule&#45;&gt;TableModule</title>
<path fill="none" stroke="#000000" d="M1591.6937,-104C1728.606,-104 2070.5526,-104 2070.5526,-104 2070.5526,-104 2070.5526,-219.7623 2070.5526,-219.7623"/>
<polygon fill="#000000" stroke="#000000" points="2067.0527,-219.7623 2070.5526,-229.7623 2074.0527,-219.7623 2067.0527,-219.7623"/>
</g>
<!-- GeoCoder -->
<g id="node5" class="node">
<title>GeoCoder</title>
<ellipse fill="#fdb462" stroke="#000000" cx="1181" cy="-104" rx="50.9444" ry="18"/>
<text text-anchor="middle" x="1181" y="-99.8" font-family="Times,serif" font-size="14.00" fill="#000000">GeoCoder</text>
</g>
<!-- GeoCoder&#45;&gt;NguiMapModule -->
<g id="edge4" class="edge">
<title>GeoCoder&#45;&gt;NguiMapModule</title>
<path fill="none" stroke="#000000" d="M1181,-122.308C1181,-142.1455 1181,-171 1181,-171 1181,-171 1081.6635,-171 1081.6635,-171"/>
<polygon fill="#000000" stroke="#000000" points="1081.6635,-167.5001 1071.6635,-171 1081.6635,-174.5001 1081.6635,-167.5001"/>
</g>
<!-- NavigatorGeolocation -->
<g id="node6" class="node">
<title>NavigatorGeolocation</title>
<ellipse fill="#fdb462" stroke="#000000" cx="1015" cy="-104" rx="96.6907" ry="18"/>
<text text-anchor="middle" x="1015" y="-99.8" font-family="Times,serif" font-size="14.00" fill="#000000">NavigatorGeolocation</text>
</g>
<!-- NavigatorGeolocation&#45;&gt;NguiMapModule -->
<g id="edge5" class="edge">
<title>NavigatorGeolocation&#45;&gt;NguiMapModule</title>
<path fill="none" stroke="#000000" d="M1015,-122.0109C1015,-122.0109 1015,-151.855 1015,-151.855"/>
<polygon fill="#000000" stroke="#000000" points="1011.5001,-151.8549 1015,-161.855 1018.5001,-151.855 1011.5001,-151.8549"/>
</g>
<!-- NguiMap -->
<g id="node7" class="node">
<title>NguiMap</title>
<ellipse fill="#fdb462" stroke="#000000" cx="852" cy="-104" rx="48.0955" ry="18"/>
<text text-anchor="middle" x="852" y="-99.8" font-family="Times,serif" font-size="14.00" fill="#000000">NguiMap</text>
</g>
<!-- NguiMap&#45;&gt;NguiMapModule -->
<g id="edge6" class="edge">
<title>NguiMap&#45;&gt;NguiMapModule</title>
<path fill="none" stroke="#000000" d="M852,-122.308C852,-142.1455 852,-171 852,-171 852,-171 947.9905,-171 947.9905,-171"/>
<polygon fill="#000000" stroke="#000000" points="947.9905,-174.5001 957.9905,-171 947.9905,-167.5001 947.9905,-174.5001"/>
</g>
<!-- OptionBuilder -->
<g id="node8" class="node">
<title>OptionBuilder</title>
<ellipse fill="#fdb462" stroke="#000000" cx="719" cy="-104" rx="66.6537" ry="18"/>
<text text-anchor="middle" x="719" y="-99.8" font-family="Times,serif" font-size="14.00" fill="#000000">OptionBuilder</text>
</g>
<!-- OptionBuilder&#45;&gt;NguiMapModule -->
<g id="edge7" class="edge">
<title>OptionBuilder&#45;&gt;NguiMapModule</title>
<path fill="none" stroke="#000000" d="M719,-122.0109C719,-144.4852 719,-180 719,-180 719,-180 948.2785,-180 948.2785,-180"/>
<polygon fill="#000000" stroke="#000000" points="948.2785,-183.5001 958.2785,-180 948.2784,-176.5001 948.2785,-183.5001"/>
</g>
<!-- { provide: NgMapApiLoader, useClass: NgMapAsyncCallbackApiLoader } -->
<g id="node9" class="node">
<title>{ provide: NgMapApiLoader, useClass: NgMapAsyncCallbackApiLoader }</title>
<ellipse fill="#fdb462" stroke="#000000" cx="329" cy="-104" rx="305.1984" ry="18"/>
<text text-anchor="middle" x="329" y="-99.8" font-family="Times,serif" font-size="14.00" fill="#000000">{ provide: NgMapApiLoader, useClass: NgMapAsyncCallbackApiLoader }</text>
</g>
<!-- { provide: NgMapApiLoader, useClass: NgMapAsyncCallbackApiLoader }&#45;&gt;NguiMapModule -->
<g id="edge8" class="edge">
<title>{ provide: NgMapApiLoader, useClass: NgMapAsyncCallbackApiLoader }&#45;&gt;NguiMapModule</title>
<path fill="none" stroke="#000000" d="M329,-122.0263C329,-146.9773 329,-189 329,-189 329,-189 948.2781,-189 948.2781,-189"/>
<polygon fill="#000000" stroke="#000000" points="948.2781,-192.5001 958.2781,-189 948.2781,-185.5001 948.2781,-192.5001"/>
</g>
<!-- AppComponent -->
<g id="node10" class="node">
<title>AppComponent</title>
<polygon fill="#ffffb3" stroke="#000000" points="5692.9399,-198 5587.0601,-198 5587.0601,-162 5692.9399,-162 5692.9399,-198"/>
<text text-anchor="middle" x="5640" y="-175.8" font-family="Times,serif" font-size="14.00" fill="#000000">AppComponent</text>
</g>
<!-- AppModule -->
<g id="node18" class="node">
<title>AppModule</title>
<polygon fill="#8dd3c7" stroke="#000000" points="4801.6571,-266 4798.6571,-270 4777.6571,-270 4774.6571,-266 4718.3429,-266 4718.3429,-230 4801.6571,-230 4801.6571,-266"/>
<text text-anchor="middle" x="4760" y="-243.8" font-family="Times,serif" font-size="14.00" fill="#000000">AppModule</text>
</g>
<!-- AppComponent&#45;&gt;AppModule -->
<g id="edge9" class="edge">
<title>AppComponent&#45;&gt;AppModule</title>
<path fill="none" stroke="#000000" d="M5640,-198.2921C5640,-220.2057 5640,-254 5640,-254 5640,-254 4811.8522,-254 4811.8522,-254"/>
<polygon fill="#000000" stroke="#000000" points="4811.8523,-250.5001 4801.8522,-254 4811.8522,-257.5001 4811.8523,-250.5001"/>
</g>
<!-- DashboardComponent -->
<g id="node11" class="node">
<title>DashboardComponent</title>
<polygon fill="#ffffb3" stroke="#000000" points="5568.9734,-198 5427.0266,-198 5427.0266,-162 5568.9734,-162 5568.9734,-198"/>
<text text-anchor="middle" x="5498" y="-175.8" font-family="Times,serif" font-size="14.00" fill="#000000">DashboardComponent</text>
</g>
<!-- DashboardComponent&#45;&gt;AppModule -->
<g id="edge10" class="edge">
<title>DashboardComponent&#45;&gt;AppModule</title>
<path fill="none" stroke="#000000" d="M5498,-198.0267C5498,-218.7672 5498,-250 5498,-250 5498,-250 4811.7926,-250 4811.7926,-250"/>
<polygon fill="#000000" stroke="#000000" points="4811.7926,-246.5001 4801.7926,-250 4811.7926,-253.5001 4811.7926,-246.5001"/>
</g>
<!-- UserComponent -->
<g id="node12" class="node">
<title>UserComponent</title>
<polygon fill="#ffffb3" stroke="#000000" points="5408.7591,-198 5301.2409,-198 5301.2409,-162 5408.7591,-162 5408.7591,-198"/>
<text text-anchor="middle" x="5355" y="-175.8" font-family="Times,serif" font-size="14.00" fill="#000000">UserComponent</text>
</g>
<!-- UserComponent&#45;&gt;AppModule -->
<g id="edge11" class="edge">
<title>UserComponent&#45;&gt;AppModule</title>
<path fill="none" stroke="#000000" d="M5355,-198.0348C5355,-217.5762 5355,-246 5355,-246 5355,-246 4811.8392,-246 4811.8392,-246"/>
<polygon fill="#000000" stroke="#000000" points="4811.8393,-242.5001 4801.8392,-246 4811.8392,-249.5001 4811.8393,-242.5001"/>
</g>
<!-- TypographyComponent -->
<g id="node13" class="node">
<title>TypographyComponent</title>
<polygon fill="#ffffb3" stroke="#000000" points="5282.7604,-198 5133.2396,-198 5133.2396,-162 5282.7604,-162 5282.7604,-198"/>
<text text-anchor="middle" x="5208" y="-175.8" font-family="Times,serif" font-size="14.00" fill="#000000">TypographyComponent</text>
</g>
<!-- TypographyComponent&#45;&gt;AppModule -->
<g id="edge12" class="edge">
<title>TypographyComponent&#45;&gt;AppModule</title>
<path fill="none" stroke="#000000" d="M5208,-198.2667C5208,-216.5552 5208,-242 5208,-242 5208,-242 4811.7445,-242 4811.7445,-242"/>
<polygon fill="#000000" stroke="#000000" points="4811.7445,-238.5001 4801.7445,-242 4811.7444,-245.5001 4811.7445,-238.5001"/>
</g>
<!-- IconsComponent -->
<g id="node14" class="node">
<title>IconsComponent</title>
<polygon fill="#ffffb3" stroke="#000000" points="5114.6527,-198 5003.3473,-198 5003.3473,-162 5114.6527,-162 5114.6527,-198"/>
<text text-anchor="middle" x="5059" y="-175.8" font-family="Times,serif" font-size="14.00" fill="#000000">IconsComponent</text>
</g>
<!-- IconsComponent&#45;&gt;AppModule -->
<g id="edge13" class="edge">
<title>IconsComponent&#45;&gt;AppModule</title>
<path fill="none" stroke="#000000" d="M5059,-198.0336C5059,-215.0597 5059,-238 5059,-238 5059,-238 4811.8895,-238 4811.8895,-238"/>
<polygon fill="#000000" stroke="#000000" points="4811.8895,-234.5001 4801.8895,-238 4811.8895,-241.5001 4811.8895,-234.5001"/>
</g>
<!-- MapsComponent -->
<g id="node15" class="node">
<title>MapsComponent</title>
<polygon fill="#ffffb3" stroke="#000000" points="4985.437,-198 4872.563,-198 4872.563,-162 4985.437,-162 4985.437,-198"/>
<text text-anchor="middle" x="4929" y="-175.8" font-family="Times,serif" font-size="14.00" fill="#000000">MapsComponent</text>
</g>
<!-- MapsComponent&#45;&gt;AppModule -->
<g id="edge14" class="edge">
<title>MapsComponent&#45;&gt;AppModule</title>
<path fill="none" stroke="#000000" d="M4885.1257,-198.2819C4885.1257,-213.9478 4885.1257,-234 4885.1257,-234 4885.1257,-234 4811.665,-234 4811.665,-234"/>
<polygon fill="#000000" stroke="#000000" points="4811.6651,-230.5001 4801.665,-234 4811.665,-237.5001 4811.6651,-230.5001"/>
</g>
<!-- NotificationsComponent -->
<g id="node16" class="node">
<title>NotificationsComponent</title>
<polygon fill="#ffffb3" stroke="#000000" points="6012.427,-198 5857.573,-198 5857.573,-162 6012.427,-162 6012.427,-198"/>
<text text-anchor="middle" x="5935" y="-175.8" font-family="Times,serif" font-size="14.00" fill="#000000">NotificationsComponent</text>
</g>
<!-- NotificationsComponent&#45;&gt;AppModule -->
<g id="edge15" class="edge">
<title>NotificationsComponent&#45;&gt;AppModule</title>
<path fill="none" stroke="#000000" d="M5935,-198.1985C5935,-222.3563 5935,-262 5935,-262 5935,-262 4811.8189,-262 4811.8189,-262"/>
<polygon fill="#000000" stroke="#000000" points="4811.8189,-258.5001 4801.8189,-262 4811.8188,-265.5001 4811.8189,-258.5001"/>
</g>
<!-- UpgradeComponent -->
<g id="node17" class="node">
<title>UpgradeComponent</title>
<polygon fill="#ffffb3" stroke="#000000" points="5839.5297,-198 5710.4703,-198 5710.4703,-162 5839.5297,-162 5839.5297,-198"/>
<text text-anchor="middle" x="5775" y="-175.8" font-family="Times,serif" font-size="14.00" fill="#000000">UpgradeComponent</text>
</g>
<!-- UpgradeComponent&#45;&gt;AppModule -->
<g id="edge16" class="edge">
<title>UpgradeComponent&#45;&gt;AppModule</title>
<path fill="none" stroke="#000000" d="M5775,-198.0908C5775,-221.1328 5775,-258 5775,-258 5775,-258 4811.6815,-258 4811.6815,-258"/>
<polygon fill="#000000" stroke="#000000" points="4811.6815,-254.5001 4801.6815,-258 4811.6815,-261.5001 4811.6815,-254.5001"/>
</g>
<!-- BrowserAnimationsModule  -->
<g id="node27" class="node">
<title>BrowserAnimationsModule </title>
<polygon fill="#fb8072" stroke="#000000" points="4764.8017,-334 4589.1983,-334 4589.1983,-298 4764.8017,-298 4764.8017,-334"/>
<text text-anchor="middle" x="4677" y="-311.8" font-family="Times,serif" font-size="14.00" fill="#000000">BrowserAnimationsModule </text>
</g>
<!-- AppModule&#45;&gt;BrowserAnimationsModule  -->
<g id="edge25" class="edge">
<title>AppModule&#45;&gt;BrowserAnimationsModule </title>
<path fill="none" stroke="#000000" stroke-dasharray="5,2" d="M4741.5363,-266.2228C4741.5363,-266.2228 4741.5363,-287.7269 4741.5363,-287.7269"/>
<polygon fill="#000000" stroke="#000000" points="4738.0364,-287.7269 4741.5363,-297.7269 4745.0364,-287.727 4738.0364,-287.7269"/>
</g>
<!-- AppComponent  -->
<g id="node28" class="node">
<title>AppComponent </title>
<polygon fill="#80b1d3" stroke="#000000" points="4897.439,-334 4788.561,-334 4788.561,-298 4897.439,-298 4897.439,-334"/>
<text text-anchor="middle" x="4843" y="-311.8" font-family="Times,serif" font-size="14.00" fill="#000000">AppComponent </text>
</g>
<!-- AppModule&#45;&gt;AppComponent  -->
<g id="edge26" class="edge">
<title>AppModule&#45;&gt;AppComponent </title>
<path fill="none" stroke="#000000" stroke-dasharray="1,5" d="M4795.1794,-266.2228C4795.1794,-266.2228 4795.1794,-287.7269 4795.1794,-287.7269"/>
<polygon fill="#000000" stroke="#000000" points="4791.6794,-287.7269 4795.1794,-297.7269 4798.6794,-287.727 4791.6794,-287.7269"/>
</g>
<!-- BrowserModule -->
<g id="node19" class="node">
<title>BrowserModule</title>
<polygon fill="#8dd3c7" stroke="#000000" points="4105.4734,-198 4102.4734,-202 4081.4734,-202 4078.4734,-198 3998.5266,-198 3998.5266,-162 4105.4734,-162 4105.4734,-198"/>
<text text-anchor="middle" x="4052" y="-175.8" font-family="Times,serif" font-size="14.00" fill="#000000">BrowserModule</text>
</g>
<!-- BrowserModule&#45;&gt;AppModule -->
<g id="edge17" class="edge">
<title>BrowserModule&#45;&gt;AppModule</title>
<path fill="none" stroke="#000000" d="M4052,-198.2228C4052,-218.3652 4052,-248 4052,-248 4052,-248 4708.0935,-248 4708.0935,-248"/>
<polygon fill="#000000" stroke="#000000" points="4708.0935,-251.5001 4718.0935,-248 4708.0934,-244.5001 4708.0935,-251.5001"/>
</g>
<!-- RouterModule.forRoot(args) -->
<g id="node20" class="node">
<title>RouterModule.forRoot(args)</title>
<polygon fill="#8dd3c7" stroke="#000000" points="4848.8419,-198 4845.8419,-202 4824.8419,-202 4821.8419,-198 4671.1581,-198 4671.1581,-162 4848.8419,-162 4848.8419,-198"/>
<text text-anchor="middle" x="4760" y="-175.8" font-family="Times,serif" font-size="14.00" fill="#000000">RouterModule.forRoot(args)</text>
</g>
<!-- RouterModule.forRoot(args)&#45;&gt;AppModule -->
<g id="edge18" class="edge">
<title>RouterModule.forRoot(args)&#45;&gt;AppModule</title>
<path fill="none" stroke="#000000" d="M4760,-198.2228C4760,-198.2228 4760,-219.7269 4760,-219.7269"/>
<polygon fill="#000000" stroke="#000000" points="4756.5001,-219.7269 4760,-229.7269 4763.5001,-219.727 4756.5001,-219.7269"/>
</g>
<!-- SidebarModule&#45;&gt;AppModule -->
<g id="edge19" class="edge">
<title>SidebarModule&#45;&gt;AppModule</title>
<path fill="none" stroke="#000000" d="M3696,-198.3228C3696,-221.6602 3696,-259 3696,-259 3696,-259 4708.2899,-259 4708.2899,-259"/>
<polygon fill="#000000" stroke="#000000" points="4708.29,-262.5001 4718.2899,-259 4708.2899,-255.5001 4708.29,-262.5001"/>
</g>
<!-- SidebarComponent  -->
<g id="node38" class="node">
<title>SidebarComponent </title>
<polygon fill="#fb8072" stroke="#000000" points="2670.596,-266 2543.404,-266 2543.404,-230 2670.596,-230 2670.596,-266"/>
<text text-anchor="middle" x="2607" y="-243.8" font-family="Times,serif" font-size="14.00" fill="#000000">SidebarComponent </text>
</g>
<!-- SidebarModule&#45;&gt;SidebarComponent  -->
<g id="edge43" class="edge">
<title>SidebarModule&#45;&gt;SidebarComponent </title>
<path fill="none" stroke="#000000" stroke-dasharray="5,2" d="M3670.4218,-198.1903C3670.4218,-201.5376 3670.4218,-204 3670.4218,-204 3670.4218,-204 2607,-204 2607,-204 2607,-204 2607,-219.8495 2607,-219.8495"/>
<polygon fill="#000000" stroke="#000000" points="2603.5001,-219.8494 2607,-229.8495 2610.5001,-219.8495 2603.5001,-219.8494"/>
</g>
<!-- NavbarModule&#45;&gt;AppModule -->
<g id="edge20" class="edge">
<title>NavbarModule&#45;&gt;AppModule</title>
<path fill="none" stroke="#000000" d="M3816,-198.0109C3816,-220.4852 3816,-256 3816,-256 3816,-256 4708.2195,-256 4708.2195,-256"/>
<polygon fill="#000000" stroke="#000000" points="4708.2195,-259.5001 4718.2195,-256 4708.2194,-252.5001 4708.2195,-259.5001"/>
</g>
<!-- NavbarComponent  -->
<g id="node36" class="node">
<title>NavbarComponent </title>
<polygon fill="#fb8072" stroke="#000000" points="2985.0288,-266 2858.9712,-266 2858.9712,-230 2985.0288,-230 2985.0288,-266"/>
<text text-anchor="middle" x="2922" y="-243.8" font-family="Times,serif" font-size="14.00" fill="#000000">NavbarComponent </text>
</g>
<!-- NavbarModule&#45;&gt;NavbarComponent  -->
<g id="edge39" class="edge">
<title>NavbarModule&#45;&gt;NavbarComponent </title>
<path fill="none" stroke="#000000" stroke-dasharray="5,2" d="M3790.8135,-198.1944C3790.8135,-206.2782 3790.8135,-214 3790.8135,-214 3790.8135,-214 2922,-214 2922,-214 2922,-214 2922,-219.8056 2922,-219.8056"/>
<polygon fill="#000000" stroke="#000000" points="2918.5001,-219.8055 2922,-229.8056 2925.5001,-219.8056 2918.5001,-219.8055"/>
</g>
<!-- FooterModule&#45;&gt;AppModule -->
<g id="edge21" class="edge">
<title>FooterModule&#45;&gt;AppModule</title>
<path fill="none" stroke="#000000" d="M3956.0246,-198.1686C3956.0246,-219.498 3956.0246,-252 3956.0246,-252 3956.0246,-252 4708.1877,-252 4708.1877,-252"/>
<polygon fill="#000000" stroke="#000000" points="4708.1877,-255.5001 4718.1877,-252 4708.1876,-248.5001 4708.1877,-255.5001"/>
</g>
<!-- FooterComponent  -->
<g id="node34" class="node">
<title>FooterComponent </title>
<polygon fill="#fb8072" stroke="#000000" points="3292.8814,-266 3171.1186,-266 3171.1186,-230 3292.8814,-230 3292.8814,-266"/>
<text text-anchor="middle" x="3232" y="-243.8" font-family="Times,serif" font-size="14.00" fill="#000000">FooterComponent </text>
</g>
<!-- FooterModule&#45;&gt;FooterComponent  -->
<g id="edge35" class="edge">
<title>FooterModule&#45;&gt;FooterComponent </title>
<path fill="none" stroke="#000000" stroke-dasharray="5,2" d="M3907.9755,-198.0439C3907.9755,-210.5633 3907.9755,-225 3907.9755,-225 3907.9755,-225 3232,-225 3232,-225 3232,-225 3232,-225.4878 3232,-225.4878"/>
<polygon fill="#000000" stroke="#000000" points="3228.5002,-219.8776 3232,-229.8777 3235.5002,-219.8778 3228.5002,-219.8776"/>
</g>
<!-- FixedPluginModule&#45;&gt;AppModule -->
<g id="edge22" class="edge">
<title>FixedPluginModule&#45;&gt;AppModule</title>
<path fill="none" stroke="#000000" d="M4621.0499,-198.0336C4621.0499,-215.0597 4621.0499,-238 4621.0499,-238 4621.0499,-238 4708.3104,-238 4708.3104,-238"/>
<polygon fill="#000000" stroke="#000000" points="4708.3104,-241.5001 4718.3104,-238 4708.3104,-234.5001 4708.3104,-241.5001"/>
</g>
<!-- FixedPluginComponent  -->
<g id="node32" class="node">
<title>FixedPluginComponent </title>
<polygon fill="#fb8072" stroke="#000000" points="4498.7843,-122 4345.2157,-122 4345.2157,-86 4498.7843,-86 4498.7843,-122"/>
<text text-anchor="middle" x="4422" y="-99.8" font-family="Times,serif" font-size="14.00" fill="#000000">FixedPluginComponent </text>
</g>
<!-- FixedPluginModule&#45;&gt;FixedPluginComponent  -->
<g id="edge31" class="edge">
<title>FixedPluginModule&#45;&gt;FixedPluginComponent </title>
<path fill="none" stroke="#000000" stroke-dasharray="5,2" d="M4627.4004,-161.9891C4627.4004,-139.5148 4627.4004,-104 4627.4004,-104 4627.4004,-104 4508.7756,-104 4508.7756,-104"/>
<polygon fill="#000000" stroke="#000000" points="4508.7757,-100.5001 4498.7756,-104 4508.7756,-107.5001 4508.7757,-100.5001"/>
</g>
<!-- BrowserAnimationsModule -->
<g id="node25" class="node">
<title>BrowserAnimationsModule</title>
<polygon fill="#8dd3c7" stroke="#000000" points="4507.3019,-198 4504.3019,-202 4483.3019,-202 4480.3019,-198 4334.6981,-198 4334.6981,-162 4507.3019,-162 4507.3019,-198"/>
<text text-anchor="middle" x="4421" y="-175.8" font-family="Times,serif" font-size="14.00" fill="#000000">BrowserAnimationsModule</text>
</g>
<!-- BrowserAnimationsModule&#45;&gt;AppModule -->
<g id="edge23" class="edge">
<title>BrowserAnimationsModule&#45;&gt;AppModule</title>
<path fill="none" stroke="#000000" d="M4421,-198.302C4421,-216.2699 4421,-241 4421,-241 4421,-241 4708.0919,-241 4708.0919,-241"/>
<polygon fill="#000000" stroke="#000000" points="4708.092,-244.5001 4718.0919,-241 4708.0919,-237.5001 4708.092,-244.5001"/>
</g>
<!-- NguiMapModule.forRoot(args) -->
<g id="node26" class="node">
<title>NguiMapModule.forRoot(args)</title>
<polygon fill="#8dd3c7" stroke="#000000" points="4316.3956,-198 4313.3956,-202 4292.3956,-202 4289.3956,-198 4123.6044,-198 4123.6044,-162 4316.3956,-162 4316.3956,-198"/>
<text text-anchor="middle" x="4220" y="-175.8" font-family="Times,serif" font-size="14.00" fill="#000000">NguiMapModule.forRoot(args)</text>
</g>
<!-- NguiMapModule.forRoot(args)&#45;&gt;AppModule -->
<g id="edge24" class="edge">
<title>NguiMapModule.forRoot(args)&#45;&gt;AppModule</title>
<path fill="none" stroke="#000000" d="M4220,-198.1061C4220,-217.3391 4220,-245 4220,-245 4220,-245 4708.0764,-245 4708.0764,-245"/>
<polygon fill="#000000" stroke="#000000" points="4708.0765,-248.5001 4718.0764,-245 4708.0764,-241.5001 4708.0765,-248.5001"/>
</g>
<!-- PropertyService -->
<g id="node29" class="node">
<title>PropertyService</title>
<ellipse fill="#fdb462" stroke="#000000" cx="3548" cy="-180" rx="73.492" ry="18"/>
<text text-anchor="middle" x="3548" y="-175.8" font-family="Times,serif" font-size="14.00" fill="#000000">PropertyService</text>
</g>
<!-- PropertyService&#45;&gt;AppModule -->
<g id="edge27" class="edge">
<title>PropertyService&#45;&gt;AppModule</title>
<path fill="none" stroke="#000000" d="M3548,-198.0098C3548,-222.4207 3548,-263 3548,-263 3548,-263 4708.2802,-263 4708.2802,-263"/>
<polygon fill="#000000" stroke="#000000" points="4708.2803,-266.5001 4718.2802,-263 4708.2802,-259.5001 4708.2803,-266.5001"/>
</g>
<!-- PropertyService&#45;&gt;TableModule -->
<g id="edge53" class="edge">
<title>PropertyService&#45;&gt;TableModule</title>
<path fill="none" stroke="#000000" d="M3474.6889,-180C3240.069,-180 2522.9024,-180 2522.9024,-180 2522.9024,-180 2522.9024,-257 2522.9024,-257 2522.9024,-257 2117.8781,-257 2117.8781,-257"/>
<polygon fill="#000000" stroke="#000000" points="2117.8781,-253.5001 2107.8781,-257 2117.8781,-260.5001 2117.8781,-253.5001"/>
</g>
<!-- FixedPluginComponent -->
<g id="node30" class="node">
<title>FixedPluginComponent</title>
<polygon fill="#ffffb3" stroke="#000000" points="4320.7842,-122 4171.2158,-122 4171.2158,-86 4320.7842,-86 4320.7842,-122"/>
<text text-anchor="middle" x="4246" y="-99.8" font-family="Times,serif" font-size="14.00" fill="#000000">FixedPluginComponent</text>
</g>
<!-- FixedPluginComponent&#45;&gt;FixedPluginModule -->
<g id="edge28" class="edge">
<title>FixedPluginComponent&#45;&gt;FixedPluginModule</title>
<path fill="none" stroke="#000000" d="M4243.7779,-122.207C4243.7779,-127.5549 4243.7779,-132 4243.7779,-132 4243.7779,-132 4601.8001,-132 4601.8001,-132 4601.8001,-132 4601.8001,-151.8533 4601.8001,-151.8533"/>
<polygon fill="#000000" stroke="#000000" points="4598.3002,-151.8532 4601.8001,-161.8533 4605.3002,-151.8533 4598.3002,-151.8532"/>
</g>
<!-- RouterModule -->
<g id="node31" class="node">
<title>RouterModule</title>
<polygon fill="#8dd3c7" stroke="#000000" points="4146.6528,-122 4143.6528,-126 4122.6528,-126 4119.6528,-122 4049.3472,-122 4049.3472,-86 4146.6528,-86 4146.6528,-122"/>
<text text-anchor="middle" x="4098" y="-99.8" font-family="Times,serif" font-size="14.00" fill="#000000">RouterModule</text>
</g>
<!-- RouterModule&#45;&gt;SidebarModule -->
<g id="edge41" class="edge">
<title>RouterModule&#45;&gt;SidebarModule</title>
<path fill="none" stroke="#000000" d="M4049.2461,-109C3945.662,-109 3713.0521,-109 3713.0521,-109 3713.0521,-109 3713.0521,-151.7157 3713.0521,-151.7157"/>
<polygon fill="#000000" stroke="#000000" points="3709.5522,-151.7157 3713.0521,-161.7157 3716.5522,-151.7158 3709.5522,-151.7157"/>
</g>
<!-- RouterModule&#45;&gt;NavbarModule -->
<g id="edge37" class="edge">
<title>RouterModule&#45;&gt;NavbarModule</title>
<path fill="none" stroke="#000000" d="M4049.0475,-113C3972.4169,-113 3832.791,-113 3832.791,-113 3832.791,-113 3832.791,-151.692 3832.791,-151.692"/>
<polygon fill="#000000" stroke="#000000" points="3829.2911,-151.6919 3832.791,-161.692 3836.2911,-151.692 3829.2911,-151.6919"/>
</g>
<!-- RouterModule&#45;&gt;FooterModule -->
<g id="edge33" class="edge">
<title>RouterModule&#45;&gt;FooterModule</title>
<path fill="none" stroke="#000000" d="M4049.3046,-118C4005.5104,-118 3948.0164,-118 3948.0164,-118 3948.0164,-118 3948.0164,-151.7333 3948.0164,-151.7333"/>
<polygon fill="#000000" stroke="#000000" points="3944.5165,-151.7333 3948.0164,-161.7333 3951.5165,-151.7333 3944.5165,-151.7333"/>
</g>
<!-- RouterModule&#45;&gt;FixedPluginModule -->
<g id="edge29" class="edge">
<title>RouterModule&#45;&gt;FixedPluginModule</title>
<path fill="none" stroke="#000000" d="M4135.1892,-122.1097C4135.1892,-131.897 4135.1892,-142 4135.1892,-142 4135.1892,-142 4576.1999,-142 4576.1999,-142 4576.1999,-142 4576.1999,-151.8903 4576.1999,-151.8903"/>
<polygon fill="#000000" stroke="#000000" points="4572.7,-151.8903 4576.1999,-161.8903 4579.7,-151.8904 4572.7,-151.8903"/>
</g>
<!-- FooterComponent -->
<g id="node33" class="node">
<title>FooterComponent</title>
<polygon fill="#ffffb3" stroke="#000000" points="3434.8809,-266 3317.1191,-266 3317.1191,-230 3434.8809,-230 3434.8809,-266"/>
<text text-anchor="middle" x="3376" y="-243.8" font-family="Times,serif" font-size="14.00" fill="#000000">FooterComponent</text>
</g>
<!-- FooterComponent&#45;&gt;FooterModule -->
<g id="edge32" class="edge">
<title>FooterComponent&#45;&gt;FooterModule</title>
<path fill="none" stroke="#000000" d="M3434.9754,-234C3578.0687,-234 3932,-234 3932,-234 3932,-234 3932,-208.2819 3932,-208.2819"/>
<polygon fill="#000000" stroke="#000000" points="3935.5001,-208.2819 3932,-198.2819 3928.5001,-208.282 3935.5001,-208.2819"/>
</g>
<!-- NavbarComponent -->
<g id="node35" class="node">
<title>NavbarComponent</title>
<polygon fill="#ffffb3" stroke="#000000" points="3131.0297,-266 3008.9703,-266 3008.9703,-230 3131.0297,-230 3131.0297,-266"/>
<text text-anchor="middle" x="3070" y="-243.8" font-family="Times,serif" font-size="14.00" fill="#000000">NavbarComponent</text>
</g>
<!-- NavbarComponent&#45;&gt;NavbarModule -->
<g id="edge36" class="edge">
<title>NavbarComponent&#45;&gt;NavbarModule</title>
<path fill="none" stroke="#000000" d="M3070,-229.793C3070,-224.4451 3070,-220 3070,-220 3070,-220 3841.1866,-220 3841.1866,-220 3841.1866,-220 3841.1866,-208.1274 3841.1866,-208.1274"/>
<polygon fill="#000000" stroke="#000000" points="3844.6866,-208.1274 3841.1866,-198.1274 3837.6866,-208.1275 3844.6866,-208.1274"/>
</g>
<!-- SidebarComponent -->
<g id="node37" class="node">
<title>SidebarComponent</title>
<polygon fill="#ffffb3" stroke="#000000" points="2819.0954,-266 2694.9046,-266 2694.9046,-230 2819.0954,-230 2819.0954,-266"/>
<text text-anchor="middle" x="2757" y="-243.8" font-family="Times,serif" font-size="14.00" fill="#000000">SidebarComponent</text>
</g>
<!-- SidebarComponent&#45;&gt;SidebarModule -->
<g id="edge40" class="edge">
<title>SidebarComponent&#45;&gt;SidebarModule</title>
<path fill="none" stroke="#000000" d="M2757,-229.8701C2757,-219.6855 2757,-209 2757,-209 2757,-209 3721.5782,-209 3721.5782,-209 3721.5782,-209 3721.5782,-207.9201 3721.5782,-207.9201"/>
<polygon fill="#000000" stroke="#000000" points="3725.0783,-208.2014 3721.5782,-198.2015 3718.0783,-208.2015 3725.0783,-208.2014"/>
</g>
<!-- TableComponent -->
<g id="node39" class="node">
<title>TableComponent</title>
<polygon fill="#ffffb3" stroke="#000000" points="2502.705,-198 2389.295,-198 2389.295,-162 2502.705,-162 2502.705,-198"/>
<text text-anchor="middle" x="2446" y="-175.8" font-family="Times,serif" font-size="14.00" fill="#000000">TableComponent</text>
</g>
<!-- TableComponent&#45;&gt;TableModule -->
<g id="edge44" class="edge">
<title>TableComponent&#45;&gt;TableModule</title>
<path fill="none" stroke="#000000" d="M2446,-198.2228C2446,-218.3652 2446,-248 2446,-248 2446,-248 2117.938,-248 2117.938,-248"/>
<polygon fill="#000000" stroke="#000000" points="2117.938,-244.5001 2107.938,-248 2117.9379,-251.5001 2117.938,-244.5001"/>
</g>
<!-- DetailsComponent -->
<g id="node40" class="node">
<title>DetailsComponent</title>
<polygon fill="#ffffb3" stroke="#000000" points="2371.4846,-198 2250.5154,-198 2250.5154,-162 2371.4846,-162 2371.4846,-198"/>
<text text-anchor="middle" x="2311" y="-175.8" font-family="Times,serif" font-size="14.00" fill="#000000">DetailsComponent</text>
</g>
<!-- DetailsComponent&#45;&gt;TableModule -->
<g id="edge45" class="edge">
<title>DetailsComponent&#45;&gt;TableModule</title>
<path fill="none" stroke="#000000" d="M2311,-198.0225C2311,-215.3734 2311,-239 2311,-239 2311,-239 2117.9606,-239 2117.9606,-239"/>
<polygon fill="#000000" stroke="#000000" points="2117.9607,-235.5001 2107.9606,-239 2117.9606,-242.5001 2117.9607,-235.5001"/>
</g>
<!-- TableComponent  -->
<g id="node46" class="node">
<title>TableComponent </title>
<polygon fill="#fb8072" stroke="#000000" points="2190.2052,-334 2073.7948,-334 2073.7948,-298 2190.2052,-298 2190.2052,-334"/>
<text text-anchor="middle" x="2132" y="-311.8" font-family="Times,serif" font-size="14.00" fill="#000000">TableComponent </text>
</g>
<!-- TableModule&#45;&gt;TableComponent  -->
<g id="edge51" class="edge">
<title>TableModule&#45;&gt;TableComponent </title>
<path fill="none" stroke="#000000" stroke-dasharray="5,2" d="M2090.6794,-266.2228C2090.6794,-266.2228 2090.6794,-287.7269 2090.6794,-287.7269"/>
<polygon fill="#000000" stroke="#000000" points="2087.1794,-287.7269 2090.6794,-297.7269 2094.1794,-287.727 2087.1794,-287.7269"/>
</g>
<!-- DetailsComponent  -->
<g id="node47" class="node">
<title>DetailsComponent </title>
<polygon fill="#fb8072" stroke="#000000" points="2055.4855,-334 1930.5145,-334 1930.5145,-298 2055.4855,-298 2055.4855,-334"/>
<text text-anchor="middle" x="1993" y="-311.8" font-family="Times,serif" font-size="14.00" fill="#000000">DetailsComponent </text>
</g>
<!-- TableModule&#45;&gt;DetailsComponent  -->
<g id="edge52" class="edge">
<title>TableModule&#45;&gt;DetailsComponent </title>
<path fill="none" stroke="#000000" stroke-dasharray="5,2" d="M2035.7656,-266.2228C2035.7656,-266.2228 2035.7656,-287.7269 2035.7656,-287.7269"/>
<polygon fill="#000000" stroke="#000000" points="2032.2657,-287.7269 2035.7656,-297.7269 2039.2657,-287.727 2032.2657,-287.7269"/>
</g>
<!-- Ng5SliderModule -->
<g id="node42" class="node">
<title>Ng5SliderModule</title>
<polygon fill="#8dd3c7" stroke="#000000" points="1862.5954,-198 1859.5954,-202 1838.5954,-202 1835.5954,-198 1745.4046,-198 1745.4046,-162 1862.5954,-162 1862.5954,-198"/>
<text text-anchor="middle" x="1804" y="-175.8" font-family="Times,serif" font-size="14.00" fill="#000000">Ng5SliderModule</text>
</g>
<!-- Ng5SliderModule&#45;&gt;TableModule -->
<g id="edge47" class="edge">
<title>Ng5SliderModule&#45;&gt;TableModule</title>
<path fill="none" stroke="#000000" d="M1804,-198.2667C1804,-216.5552 1804,-242 1804,-242 1804,-242 2006.1721,-242 2006.1721,-242"/>
<polygon fill="#000000" stroke="#000000" points="2006.1721,-245.5001 2016.1721,-242 2006.172,-238.5001 2006.1721,-245.5001"/>
</g>
<!-- FormsModule -->
<g id="node43" class="node">
<title>FormsModule</title>
<polygon fill="#8dd3c7" stroke="#000000" points="1727.8288,-198 1724.8288,-202 1703.8288,-202 1700.8288,-198 1632.1712,-198 1632.1712,-162 1727.8288,-162 1727.8288,-198"/>
<text text-anchor="middle" x="1680" y="-175.8" font-family="Times,serif" font-size="14.00" fill="#000000">FormsModule</text>
</g>
<!-- FormsModule&#45;&gt;TableModule -->
<g id="edge48" class="edge">
<title>FormsModule&#45;&gt;TableModule</title>
<path fill="none" stroke="#000000" d="M1680,-198.2921C1680,-220.2057 1680,-254 1680,-254 1680,-254 2005.9219,-254 2005.9219,-254"/>
<polygon fill="#000000" stroke="#000000" points="2005.9219,-257.5001 2015.9219,-254 2005.9218,-250.5001 2005.9219,-257.5001"/>
</g>
<!-- ToastModule.forRoot() -->
<g id="node44" class="node">
<title>ToastModule.forRoot()</title>
<polygon fill="#8dd3c7" stroke="#000000" points="2226.5218,-198 2223.5218,-202 2202.5218,-202 2199.5218,-198 2079.4782,-198 2079.4782,-162 2226.5218,-162 2226.5218,-198"/>
<text text-anchor="middle" x="2153" y="-175.8" font-family="Times,serif" font-size="14.00" fill="#000000">ToastModule.forRoot()</text>
</g>
<!-- ToastModule.forRoot()&#45;&gt;TableModule -->
<g id="edge49" class="edge">
<title>ToastModule.forRoot()&#45;&gt;TableModule</title>
<path fill="none" stroke="#000000" d="M2093.6001,-198.2228C2093.6001,-198.2228 2093.6001,-219.7269 2093.6001,-219.7269"/>
<polygon fill="#000000" stroke="#000000" points="2090.1002,-219.7269 2093.6001,-229.7269 2097.1002,-219.727 2090.1002,-219.7269"/>
</g>
<!-- RouterModule.forChild(args) -->
<g id="node45" class="node">
<title>RouterModule.forChild(args)</title>
<polygon fill="#8dd3c7" stroke="#000000" points="2061.7323,-198 2058.7323,-202 2037.7323,-202 2034.7323,-198 1880.2677,-198 1880.2677,-162 2061.7323,-162 2061.7323,-198"/>
<text text-anchor="middle" x="1971" y="-175.8" font-family="Times,serif" font-size="14.00" fill="#000000">RouterModule.forChild(args)</text>
</g>
<!-- RouterModule.forChild(args)&#45;&gt;TableModule -->
<g id="edge50" class="edge">
<title>RouterModule.forChild(args)&#45;&gt;TableModule</title>
<path fill="none" stroke="#000000" d="M2038.9525,-198.2228C2038.9525,-198.2228 2038.9525,-219.7269 2038.9525,-219.7269"/>
<polygon fill="#000000" stroke="#000000" points="2035.4526,-219.7269 2038.9525,-229.7269 2042.4526,-219.727 2035.4526,-219.7269"/>
</g>
</g>
</svg>
